<?xml version="1.0" encoding="UTF-8"?>
<svg width="46px" height="40px" viewBox="0 0 46 40" version="1.1" xmlns="http://www.w3.org/2000/svg" xmlns:xlink="http://www.w3.org/1999/xlink">
    <!-- Generator: Sketch 42 (36781) - http://www.bohemiancoding.com/sketch -->
    <title>REVIEW</title>
    <desc>Created with Sketch.</desc>
    <defs></defs>
    <g id="Page-1" stroke="none" stroke-width="1" fill="none" fill-rule="evenodd">
        <g id="ICONS" transform="translate(-539.000000, -369.000000)" fill="#FFFFFF">
            <path d="M549,374 C549,373.448 549.448,373 550,373 C550.552,373 551,373.448 551,374 C551,374.552 550.552,375 550,375 C549.448,375 549,374.552 549,374 L549,374 Z M546,374 C546,373.448 546.448,373 547,373 C547.552,373 548,373.448 548,374 C548,374.552 547.552,375 547,375 C546.448,375 546,374.552 546,374 L546,374 Z M544,375 C543.448,375 543,374.552 543,374 C543,373.448 543.448,373 544,373 C544.552,373 545,373.448 545,374 C545,374.552 544.552,375 544,375 L544,375 Z M541,372.006 C541,371.454 541.454,371 541.998,371 L544,371 L550,371 L553,371 L556,371 L574.002,371 C574.555,371 575,371.447 575,372.006 L575,377 L556,377 L553,377 L550,377 L544,377 L541,377 L541,372.006 Z M575,404 L575,405.994 C575,406.546 574.547,407 574.002,407 L562,407 L541.998,407 C541.445,407 541,406.553 541,405.994 L541,403 L541,397 L541,391 L541,385 L541,380 L541,379 L544,379 L550,379 L553,379 L556,379 L557,379 L562,379 L563,379 L573,379 L575,379 L575,382 L576,382 L577,382 L577,379 L577,372.006 C577,370.343 575.658,369 574.002,369 L556,369 L553,369 L550,369 L544,369 L541.998,369 C541.647,369 541.314,369.072 541,369.186 C539.842,369.601 539,370.701 539,372.006 L539,379 L539,380 L539,385 L539,391 L539,397 L539,403 L539,405.994 C539,407.658 540.342,409 541.998,409 L574.002,409 C575.295,409 576.397,408.163 576.814,407 C576.927,406.684 577,406.349 577,405.994 L577,404 L576,404 L575,404 Z M563,384 L568,384 L568,385 L568,385.466 L568,386 L567.515,386 L567,386 L566,386 L563,386 L562,386 L562,385 L562,384 L563,384 Z M557,386 L544,386 L544,385 L544,384 L557,384 L558,384 L558,385 L558,386 L557,386 Z M555,392 L544,392 L544,391 L544,390 L557,390 L562,390 L562,391 L562,392 L555,392 Z M544,396 L550,396 L550,397 L550,398 L544,398 L544,397 L544,396 Z M580.707,390.293 C581.098,390.684 581.098,391.317 580.707,391.707 L577,395.41 L575.701,396.707 C575.508,396.9 575.254,396.997 575,396.999 C574.742,397 574.484,396.904 574.287,396.707 L571.293,393.717 C570.902,393.326 570.902,392.693 571.293,392.303 C571.684,391.912 572.316,391.912 572.707,392.302 L574.994,394.587 L575,394.581 L577,392.583 L579.293,390.293 C579.684,389.902 580.316,389.902 580.707,390.293 L580.707,390.293 Z M582,396.603 C580.938,398.362 579.122,399.616 577,399.921 C576.673,399.968 576.341,400 576,400 C575.659,400 575.327,399.968 575,399.921 C571.609,399.435 569,396.524 569,393 C569,392.304 569.105,391.634 569.294,391 C569.863,389.092 571.227,387.531 573,386.689 C573.623,386.394 574.293,386.182 575,386.08 C575.327,386.033 575.659,386 576,386 C576.341,386 576.673,386.033 577,386.08 C579.122,386.384 580.938,387.637 582,389.396 C582.635,390.448 583,391.681 583,393 C583,394.318 582.635,395.551 582,396.603 L582,396.603 Z M582,386.302 C581.432,385.793 580.802,385.353 580.117,385 C579.164,384.509 578.113,384.182 577,384.059 C576.671,384.022 576.338,384 576,384 C575.662,384 575.329,384.022 575,384.059 C574.305,384.136 573.638,384.3 573,384.525 C572.616,384.662 572.24,384.815 571.883,385 C569.556,386.199 567.828,388.383 567.232,391 C567.086,391.645 567,392.312 567,393 C567,397.633 570.5,401.443 575,401.942 C575.323,401.977 575.651,401.998 575.983,401.999 C575.988,401.999 575.994,402 576,402 C576.006,402 576.012,401.999 576.017,401.999 C576.349,401.998 576.677,401.977 577,401.942 C578.912,401.73 580.641,400.916 582,399.698 C583.839,398.052 585,395.664 585,393 C585,390.337 583.839,387.949 582,386.302 L582,386.302 Z" id="REVIEW"></path>
        </g>
    </g>
</svg>