<svg xmlns="http://www.w3.org/2000/svg" viewBox="0 0 46.91 38"><defs><style>.cls-1{fill:#fff;}</style></defs><title>check-icon</title><g id="Layer_2" data-name="Layer 2"><g id="Layer_2-2" data-name="Layer 2"><path class="cls-1" d="M37.95,18a19,19,0,1,0-8.36,16.74l0,0A10,10,0,1,0,37.95,18ZM18,35.95A16.87,16.87,0,0,1,11,34h7ZM18,32H8.07a17.15,17.15,0,0,1-2-2H18Zm0-4H4.6a17,17,0,0,1-1.08-2H18Zm0-4H2.75a16.87,16.87,0,0,1-.47-2H18Zm0-4H2.05c0-.33-.05-.66-.05-1s0-.67.05-1H18Zm0-4H2.28a16.89,16.89,0,0,1,.47-2H18Zm0-4H3.53A17,17,0,0,1,4.6,10H18Zm0-4H6.06a17.14,17.14,0,0,1,2-2H18Zm0-4H11a16.87,16.87,0,0,1,7-1.95Zm2,31.95V2.05a17,17,0,0,1,16,16,10,10,0,0,0-7.59,15.12A16.91,16.91,0,0,1,20,35.95Zm16.91,0a8,8,0,1,1,8-8A8,8,0,0,1,36.91,36Z"/><polygon class="cls-1" points="41.21 23.91 35.7 29.24 32.6 26.25 31.21 27.69 35.7 32.02 42.6 25.35 41.21 23.91"/></g></g></svg>