<svg id="Layer_1" data-name="Layer 1" xmlns="http://www.w3.org/2000/svg" viewBox="0 0 750 174"><title>Artboard 1</title><g id="_Group_" data-name="&lt;Group&gt;"><path id="_Compound_Path_" data-name="&lt;Compound Path&gt;" d="M210.5,37h36.2c31,0,50.6,20,50.6,51.2s-19.5,51.2-50.6,51.2H210.5V37Zm35.4,83.7c19.5,0,30.2-12.5,30.2-32.4s-10.7-32.5-30.2-32.5H231.7v64.9Z"/><path id="_Path_" data-name="&lt;Path&gt;" d="M352.2,85.3a20.28,20.28,0,0,0-10.4-2.5c-7,0-12.7,3.7-14.2,10.5v46.2H307V64.9h20.7v7.3a19.23,19.23,0,0,1,16.7-9,20.35,20.35,0,0,1,7.8,1.3Z"/><path id="_Compound_Path_2" data-name="&lt;Compound Path&gt;" d="M393.5,141.2c-21.7,0-36.6-16-36.6-38.9s14.9-39.1,36.6-39.1,36.5,16,36.5,39.1C430,125.2,415.2,141.2,393.5,141.2Zm0-60.4c-10.4,0-16,9-16,21.5,0,12.3,5.7,21.4,16,21.4s16-9,16-21.4S403.8,80.8,393.5,80.8Z"/><path id="_Compound_Path_3" data-name="&lt;Compound Path&gt;" d="M459.6,167.1H438.9V64.9h20.7v6.2c3.3-4,10.7-7.8,18.7-7.8,21.7,0,34,18,34,39.1s-12.3,38.9-34,38.9c-8,0-15.4-3.8-18.7-7.8v33.6Zm0-52.6a15.63,15.63,0,0,0,14,8.7c11.2,0,17.9-9,17.9-20.9s-6.7-21-17.9-21a15.76,15.76,0,0,0-14,8.7Z"/><path id="_Compound_Path_4" data-name="&lt;Compound Path&gt;" d="M542.1,139.5H521.2V31h20.9V71.1c3.3-4,10.7-7.8,18.7-7.8,21.7,0,33.9,17.7,33.9,39.1s-12.2,38.9-33.9,38.9c-8,0-15.4-3.8-18.7-7.8Zm0-25a15.19,15.19,0,0,0,14,8.7c11.2,0,17.9-9,17.9-20.9s-6.7-21-17.9-21a15.76,15.76,0,0,0-14,8.7Z"/><path id="_Compound_Path_5" data-name="&lt;Compound Path&gt;" d="M638.7,141.4c-21.7,0-36.6-16-36.6-38.9S617,63.4,638.7,63.4s36.5,16,36.5,39.1C675.2,125.4,660.3,141.4,638.7,141.4Zm0-60.4c-10.4,0-16,9-16,21.5,0,12.3,5.7,21.4,16,21.4s16-9,16-21.4S649,81,638.7,81Z"/><path id="_Path_2" data-name="&lt;Path&gt;" d="M721.7,101l27.2,38.6H726l-16-23.4-16.2,23.4H672.1L699,101.5,673.7,65h22.9L711,86.2,725.6,65h21.7Z"/></g><g id="_Group_2" data-name="&lt;Group&gt;"><polygon id="_Path_3" data-name="&lt;Path&gt;" points="54.9 1.9 1 36.6 38.3 66.7 92.5 33.2 54.9 1.9"/><polygon id="_Path_4" data-name="&lt;Path&gt;" points="1 96.1 54.9 131.5 92.5 100.2 38.3 66.7 1 96.1"/><polygon id="_Path_5" data-name="&lt;Path&gt;" points="92.5 100.2 130.1 131.5 183.8 96.5 146.6 66.7 92.5 100.2"/><polygon id="_Path_6" data-name="&lt;Path&gt;" points="183.8 36.9 130.1 1.9 92.5 33.2 146.6 66.7 183.8 36.9"/><polygon id="_Path_7" data-name="&lt;Path&gt;" points="92.6 106.9 54.9 138.2 38.7 127.7 38.7 139.5 92.6 171.8 146.4 139.5 146.4 127.7 130.3 138.2 92.6 106.9"/></g></svg>