<svg id="Layer_1" data-name="Layer 1" xmlns="http://www.w3.org/2000/svg" viewBox="0 0 555.23 138.6"><title>Artboard 1</title><path d="M181.06,1.35c-20.61,0-34.26,10.84-36.18,27.08-.71,6-1.38,11.26-1.38,11.26H411.64s.5-4,.9-7.13c2-16.36-4.94-31.2-30.22-31.2h0s-190.38,0-201.24,0Zm-163.64,0L12.72,39.68h121.6L139,1.35H17.43Zm408.18,0-4.7,38.33H552.73s.16-1.39.74-5.9c3.21-25.16-13-32.43-28.7-32.43H425.6Zm-6.51,52.92-10.27,83.65,45.48,0,10.28-83.62-45.49,0Zm86.4,0L495.2,137.93l45.48,0L551,54.29l-45.47,0Zm-494.54,0L.66,137.94H122.25l4.48-36.29H50.59L52.52,86h76.11l3.9-31.7H10.95Zm130.77,0C138.38,76.12,149.31,86,164.8,86l61.52,0-1.92,15.67H135.91l-4.46,36.29s96.33,0,100.24,0c3.22-.23,25.76-.85,33.43-19.28,2.49-6,4.69-27.44,5.3-31.94,3.54-26.16-14.57-32.4-28.83-32.4Zm141.55,0L273,137.94h45.46L324.85,86h57.1c16.19,0,24.9-8.71,26.51-20.4.82-5.9,1.4-11.3,1.4-11.3H283.27Z"/></svg>