<svg xmlns="http://www.w3.org/2000/svg" viewBox="0 0 56 28"><defs><style>.cls-1{fill:#fff;}</style></defs><title>Asset 1</title><g id="Layer_2" data-name="Layer 2"><g id="Layer_2-2" data-name="Layer 2"><path class="cls-1" d="M28,0C12.54,0,0,14,0,14S12.54,28,28,28,56,14,56,14,43.46,0,28,0ZM49.62,10.88h-8a13.81,13.81,0,0,0-.63-2h5.94C47.92,9.56,48.81,10.23,49.62,10.88Zm-5.77-4H40a14.13,14.13,0,0,0-2.38-3A39.46,39.46,0,0,1,43.85,6.88ZM2.8,14A47.88,47.88,0,0,1,18.36,3.86a14,14,0,0,0,0,20.26A48.13,48.13,0,0,1,2.8,14ZM28,26A12,12,0,1,1,40,14,12,12,0,0,1,28,26Zm9.64-1.86a14.13,14.13,0,0,0,2.55-3.26h4.09A39.7,39.7,0,0,1,37.64,24.14Zm9.68-5.26H41.1a13.78,13.78,0,0,0,.6-2h8.25C49.16,17.52,48.28,18.19,47.32,18.87Zm4.94-4H42c0-.29,0-.58,0-.87s0-.75-.06-1.12H52c.46.42.87.8,1.21,1.13Z"/><path class="cls-1" d="M28,7a7,7,0,1,0,7,7A7,7,0,0,0,28,7Zm0,12a5,5,0,1,1,5-5A5,5,0,0,1,28,19Z"/></g></g></svg>