<svg xmlns="http://www.w3.org/2000/svg" viewBox="0 0 56 28"><defs><style>.cls-1{fill:#fff;}</style></defs><title>Asset 4</title><g id="Layer_2" data-name="Layer 2"><g id="Layer_2-2" data-name="Layer 2"><path class="cls-1" d="M28,0C12.54,0,0,14,0,14S12.54,28,28,28,56,14,56,14,43.46,0,28,0ZM41.7,16.87h8.25c-.79.64-1.67,1.32-2.63,2H41.1A13.78,13.78,0,0,0,41.7,16.87Zm-.69-8h5.94c1,.68,1.86,1.35,2.67,2h-8A13.81,13.81,0,0,0,41,8.88Zm2.84-2H40a14.13,14.13,0,0,0-2.38-3A39.46,39.46,0,0,1,43.85,6.88ZM2.8,14A47.88,47.88,0,0,1,18.36,3.86a14,14,0,0,0,0,20.26A48.13,48.13,0,0,1,2.8,14ZM28,26A12,12,0,1,1,40,14,12,12,0,0,1,28,26Zm12.19-5.13h4.09a39.7,39.7,0,0,1-6.64,3.26A14.13,14.13,0,0,0,40.19,20.87Zm12.08-6H42c0-.29,0-.58,0-.87s0-.75-.06-1.12H52c.46.42.87.8,1.21,1.13Z"/><path class="cls-1" d="M32.87,12.17a3.65,3.65,0,0,1-3.65-3.65,3.61,3.61,0,0,1,.41-1.64,7.33,7.33,0,1,0,5.26,4.68A3.63,3.63,0,0,1,32.87,12.17ZM28,19.3a5.3,5.3,0,0,1-.78-10.55,5.66,5.66,0,0,0,5.65,5.42l.43,0A5.31,5.31,0,0,1,28,19.3Z"/></g></g></svg>