<svg xmlns="http://www.w3.org/2000/svg" viewBox="0 0 788.48 264"><title>Asset 11</title><g id="Layer_2" data-name="Layer 2"><g id="Layer_1-2" data-name="Layer 1"><path d="M371.7,204.95H397V94.7H371.7ZM464,139.8c-12.95-4.18-24.86-7.52-24.86-15.45v-.42c0-6.47,5.64-11.07,15.45-11.07a48.42,48.42,0,0,1,15.68,3h0l.16.07,1.44.54c4,1.26,14.78,3,23.86-11.16C484,97.62,469,92.81,455.22,92.81c-21.92,0-39.25,12.74-39.25,33.62v.42c0,21.09,18.17,27.77,34.45,32.37,12.95,4,24.65,6.89,24.65,15.45v.42c0,7.31-6.27,11.91-17.13,11.91a54.69,54.69,0,0,1-23-5.62c-2.27-1-14.06-5-24.15,9.35A77.46,77.46,0,0,0,457.31,207c23,0,40.93-11.48,40.93-34.67V172C498.24,152.12,480.07,144.81,464,139.8ZM302.8,175.71l-29.65-81H246l45.31,111.08h22.76L359.18,94.7H332.66ZM615.59,92.4c-33.83,0-58.89,26.1-58.89,57.84,0,31.53,24.85,57.21,58.47,57.21,34,0,59.1-26.1,59.1-57.63C674.27,118.08,649.41,92.4,615.59,92.4Zm0,93.13C596,185.53,582,169.45,582,149.82c0-19.42,12.95-35.29,33.2-35.29,19.83,0,33.83,16.08,33.83,35.71C649,169.66,636,185.53,615.59,185.53ZM749.23,92.4c-17.13,0-27.35,9-34.46,19.42V94.7H689.51V204.95h25.26V142.72c0-17.12,10.23-27.35,24.85-27.35,15,0,23.59,9.81,23.59,26.93v62.65h25.27V134.79C788.48,109.1,774.07,92.4,749.23,92.4ZM514.94,204.95h25.27V94.7H514.94Z"/><path d="M264,23.93A23.93,23.93,0,0,0,240.07,0H23.93A23.93,23.93,0,0,0,0,23.93V240.07A23.93,23.93,0,0,0,23.93,264H240.07A23.93,23.93,0,0,0,264,240.07ZM88,51.53A15.89,15.89,0,1,1,71.84,67.42,15.94,15.94,0,0,1,88,51.53Zm107.89,152c-16.36,0-24.19-9.72-24.19-23a42.07,42.07,0,0,1,1.66-11.86l7.83-28a28.45,28.45,0,0,0,1.19-8.54c0-9-5.46-14.47-14.23-14.47-11.15,0-18.5,8-22.29,23.42L130.64,202H104.08l4.77-19.13c-7.81,12.83-18.65,20.77-32,20.77-16.13,0-23.72-9.29-23.72-23.29a54.59,54.59,0,0,1,1.42-11.94L66.62,119H47.89l5.69-21H98.64L80.85,168.56a44.7,44.7,0,0,0-1.66,10.85c0,4.51,2.22,5.83,5.69,6.61,2.11.47,19,.14,28.15-20.25L124.71,119h-19l5.69-21H152l-5.22,23.84c7.11-13.28,21.34-25.9,35.34-25.9,14.94,0,27.27,10.64,27.27,31a60.12,60.12,0,0,1-2.61,17.29l-7.59,27.26a31.48,31.48,0,0,0-1.19,7.36c0,4.74,1.9,7.11,5.46,7.11s8.06-2.61,13.28-17.07l10.43,4C221,194.54,209.86,203.55,195.86,203.55Z"/></g></g></svg>