<svg xmlns="http://www.w3.org/2000/svg" viewBox="0 0 327.61 78.85"><title>Asset 1</title><g id="Layer_2" data-name="Layer 2"><g id="Layer_1-2" data-name="Layer 1"><rect x="162.56" y="8.16" width="7.92" height="61.18"/><path d="M288.18,8.16h9.53v8.89h-9.53ZM289,26.79H297V69.33H289Z"/><path d="M204.58,69.33a23.11,23.11,0,0,1-.76-6.36c-3.79,7-9.53,7.71-13.06,7.71-9.7,0-14.94-5.51-14.94-12.54a14,14,0,0,1,7.43-12.46c4.55-2.54,11.29-2.79,14.67-2.79,2,0,3.29.08,5.73.25,0-5.25,0-7.55-1.52-9.41-1.6-2.12-5.06-2.8-7.33-2.8-8,0-8.43,5.51-8.51,7.2h-7.93c.25-2.2.51-5.16,3-8.05,3.2-3.56,9.2-4.57,13.66-4.57,6.16,0,12.73,1.94,15,6.27a12.61,12.61,0,0,1,1.43,6.52l-.33,20.34a98.79,98.79,0,0,0,.67,10.68Zm-5.49-20.93c-3.2,0-15.25,0-15.25,8.64,0,2.71,1.68,7.37,8.77,7.37a10.13,10.13,0,0,0,9-4.57c1.76-2.88,1.85-5.25,2-11.19a34.57,34.57,0,0,0-4.56-.25"/><path d="M218.51,31.72l-.08-4.92h7.92l.08,6.87c.93-1.78,4-7.71,13.57-7.71,3.79,0,15.35,1.44,15.35,14.49V69.33h-8.1v-27c0-2.8-.33-5.34-2.27-7.29a10.84,10.84,0,0,0-7.5-2.87c-5.73,0-11,4.15-11,12.7V69.33h-7.92Z"/><path d="M257.83,26.79h7.5V17.73l7.84-2.54V26.79h9.44v5.85h-9.44V58c0,2.11,0,5.68,5.65,5.68a17.13,17.13,0,0,0,3.79-.43v6.19a39.17,39.17,0,0,1-6.58.5c-7.25,0-10.7-2.11-10.7-9.06V32.64h-7.5Z"/><path d="M304.26,35.44c0-2.88-.17-5.85-.43-8.65h8L312,35c1.51-5.93,6.57-7.88,10.12-8.39a24.51,24.51,0,0,1,5.48-.16v7.79a6.65,6.65,0,0,0-1.52-.33,17.31,17.31,0,0,0-2.27-.09c-9.36,0-11.56,5.58-11.56,12.87V69.33h-8Z"/><path d="M31,0A29.86,29.86,0,1,0,60.67,29.86,29.78,29.78,0,0,0,31,0m0,50.53A20.64,20.64,0,1,1,51.5,29.88,20.59,20.59,0,0,1,31,50.53"/><polygon points="57.51 57.09 30.96 68.62 4.41 57.09 0 65.59 30.96 78.85 61.92 65.59 57.51 57.09"/><path d="M79.93,8.16h20.39c7.42,0,12.49.42,16.62,4.91a16.6,16.6,0,0,1,4.46,11.86,16.22,16.22,0,0,1-4.8,12c-3.21,3.22-7.42,5.26-18.39,5.26H88.36V69.33H79.93ZM88.36,35h10c5.58,0,14.09-.42,14.09-10.41,0-9.58-7.93-9.58-12.32-9.58H88.36Z"/><path d="M148.74,69.33A23,23,0,0,1,148,63c-3.79,7-9.52,7.71-13.07,7.71-9.7,0-14.91-5.51-14.91-12.54a14,14,0,0,1,7.41-12.46c4.56-2.54,11.3-2.79,14.67-2.79,2,0,3.29.08,5.73.25,0-5.25,0-7.55-1.51-9.41C144.7,31.62,141.24,31,139,31c-8,0-8.43,5.51-8.51,7.2h-7.92c.24-2.2.5-5.16,2.94-8.05,3.22-3.56,9.19-4.57,13.66-4.57,6.15,0,12.73,1.94,15,6.27a12.53,12.53,0,0,1,1.43,6.52l-.34,20.34a101.62,101.62,0,0,0,.68,10.68Zm-5.48-20.93c-3.21,0-15.25,0-15.25,8.64,0,2.71,1.68,7.37,8.77,7.37a10.16,10.16,0,0,0,9-4.57c1.77-2.88,1.85-5.25,2-11.19a34.7,34.7,0,0,0-4.56-.25"/></g></g></svg>