<?xml version="1.0" encoding="UTF-8"?>
<svg width="46px" height="41px" viewBox="0 0 46 41" version="1.1" xmlns="http://www.w3.org/2000/svg" xmlns:xlink="http://www.w3.org/1999/xlink">
    <!-- Generator: Sketch 42 (36781) - http://www.bohemiancoding.com/sketch -->
    <title>RUBY</title>
    <desc>Created with Sketch.</desc>
    <defs></defs>
    <g id="Page-1" stroke="none" stroke-width="1" fill="none" fill-rule="evenodd">
        <g id="ICONS" transform="translate(-283.000000, -258.000000)" fill="#FFFFFF">
            <path d="M291.5698,262.0137 C291.6998,261.8337 291.8658,261.6607 292.0468,261.4927 C292.0818,261.7157 292.1268,261.9407 292.2078,262.1707 L295.6738,272.0017 L285.0088,272.0017 C285.0158,271.4487 285.1608,270.9027 285.4668,270.4767 L291.5698,262.0137 Z M304.0438,260.0017 L297.0998,270.0317 L294.0938,261.5057 C293.8698,260.8707 294.0098,260.3977 294.4368,260.1647 C294.8098,260.0607 295.1768,260.0017 295.5148,260.0017 L304.0438,260.0017 Z M317.4928,260.1757 C317.9028,260.4107 318.0308,260.8757 317.8078,261.5037 L314.7868,270.0057 L307.8618,260.0017 L316.3908,260.0017 C316.7348,260.0017 317.1108,260.0657 317.4928,260.1757 L317.4928,260.1757 Z M320.3358,262.0137 L326.4388,270.4767 C326.7458,270.9037 326.8908,271.4497 326.8968,272.0017 L316.1998,272.0017 L319.6928,262.1727 C319.7748,261.9417 319.8198,261.7157 319.8568,261.4917 C320.0378,261.6597 320.2058,261.8337 320.3358,262.0137 L320.3358,262.0137 Z M315.4898,274.0017 L326.1418,274.0017 L308.5348,293.5777 L315.4898,274.0017 Z M303.2808,293.5757 L285.7558,274.0017 L296.3798,274.0017 L303.2808,293.5757 Z M313.3668,274.0017 L305.9048,295.0047 L298.4998,274.0017 L313.3668,274.0017 Z M298.1688,272.0017 L305.9518,260.7587 L313.7358,272.0017 L298.1688,272.0017 Z M328.0608,269.3067 L321.9578,260.8447 C321.1658,259.7457 319.7688,258.8267 318.3308,258.3517 C317.8788,258.1287 317.3478,258.0017 316.7508,258.0017 L316.3908,258.0017 L295.5148,258.0017 L295.1578,258.0017 C294.5698,258.0017 294.0418,258.1247 293.5938,258.3437 C292.1488,258.8157 290.7468,259.7367 289.9478,260.8447 L283.8448,269.3067 C282.6058,271.0267 282.7448,273.6377 284.1618,275.2207 L305.1158,298.6227 C305.1178,298.6257 305.1198,298.6277 305.1228,298.6307 L305.1568,298.6687 C305.1658,298.6787 305.1788,298.6817 305.1878,298.6917 C305.2688,298.7767 305.3618,298.8417 305.4628,298.8907 C305.4878,298.9037 305.5128,298.9157 305.5398,298.9267 C305.6528,298.9697 305.7718,298.9987 305.8928,298.9997 L305.9078,298.9997 C306.0298,298.9997 306.1488,298.9707 306.2628,298.9277 C306.2888,298.9167 306.3128,298.9057 306.3388,298.8927 C306.4418,298.8437 306.5348,298.7777 306.6168,298.6917 C306.6258,298.6827 306.6378,298.6797 306.6458,298.6707 L306.6758,298.6377 C306.6798,298.6327 306.6848,298.6287 306.6888,298.6227 L327.7338,275.2217 C329.1588,273.6377 329.3038,271.0307 328.0608,269.3067 L328.0608,269.3067 Z" id="RUBY"></path>
        </g>
    </g>
</svg>