<svg xmlns="http://www.w3.org/2000/svg" viewBox="0 0 46 40.42"><defs><style>.cls-1{fill:#fff;}</style></defs><title>sketch-icon</title><g id="Layer_2" data-name="Layer 2"><g id="Layer_2-2" data-name="Layer 2"><path class="cls-1" d="M45.85,14.72,36.85.47a1,1,0,0,0-.18-.21l0,0a1,1,0,0,0-.28-.16l0,0h0A1,1,0,0,0,36,0H10a1,1,0,0,0-.3,0h0l0,0a1,1,0,0,0-.28.16l0,0a1,1,0,0,0-.18.21l-9,14.25a1,1,0,0,0,.11,1.21l22,24.17.05,0a1,1,0,0,0,.23.16l.09,0a.9.9,0,0,0,.73,0l.09,0a1,1,0,0,0,.23-.16l.05,0L34.19,28.61h.07v-.08l3.57-3.92h0v0l7.88-8.65A1,1,0,0,0,45.85,14.72ZM34.62,8.21h4.75l1.26,2H33.94Zm1.66-4.9,1.83,2.9H35.29ZM34.61,2,31.19,12.09,24.81,2ZM30.19,14.25H15.81L23,2.87Zm.23,6.36h8.35l-1.82,2H29.74ZM21.19,2,14.81,12.09,11.39,2ZM9.73,3.31l3.71,11-.11.17H2.69ZM3.44,16.44H14.17l6.35,18.76ZM23,36.3,16.28,16.44H29.72Zm3.36-3.69h1.49l-2.37,2.6Zm3.31-2H27l.68-2h3.77Zm3.64-4H28.39l.68-2h6.06Zm7.28-8H31.1l.73-2.17H42.56Zm-7.92-4.17-.11-.17.7-2.06H41.9l1.41,2.23Z"/></g></g></svg>