<?xml version="1.0" encoding="UTF-8"?>
<svg width="200px" height="200px" viewBox="0 0 200 200" version="1.1" xmlns="http://www.w3.org/2000/svg" xmlns:xlink="http://www.w3.org/1999/xlink">
    <!-- Generator: Sketch 42 (36781) - http://www.bohemiancoding.com/sketch -->
    <title>Combined Shape Copy 3</title>
    <desc>Created with Sketch.</desc>
    <defs></defs>
    <g id="Page-1" stroke="none" stroke-width="1" fill="none" fill-rule="evenodd">
        <path d="M94,199.820951 C121.553217,201.467003 149.657778,191.763579 170.710678,170.710678 C209.763107,131.658249 209.763107,68.3417511 170.710678,29.2893219 C167.105777,25.6844204 163.294121,22.4122847 159.313882,19.4729149 L145.392402,33.3943941 L41.0350003,137.751796 C23.6506967,110.656509 26.8065383,74.1985123 50.5025253,50.5025253 C65.6983312,35.3067194 86.1424166,28.5578919 106,30.2560427 L106,0.179049292 C78.4467834,-1.46700283 50.3422224,8.23642136 29.2893219,29.2893219 C-9.76310729,68.3417511 -9.76310729,131.658249 29.2893219,170.710678 C32.8942234,174.31558 36.7058791,177.587715 40.6861183,180.527085 L54.961151,166.252052 L158.965,62.2482037 C176.349303,89.3434906 173.193462,125.801488 149.497475,149.497475 C134.301669,164.693281 113.857583,171.442108 94,169.743957 L94,199.820951 Z" id="Combined-Shape-Copy-3" fill="#000000"></path>
    </g>
</svg>